<svg xmlns="http://www.w3.org/2000/svg" version="1.1" xmlns:xlink="http://www.w3.org/1999/xlink" width="512" height="512" x="0" y="0" viewBox="0 0 133 133" style="enable-background:new 0 0 512 512" xml:space="preserve" class=""><g><linearGradient id="a"><stop offset="0" stop-color="#e8effb"></stop><stop offset="1" stop-color="#adc1e7"></stop></linearGradient><linearGradient xlink:href="#a" id="h" x1="2.602" x2="130.398" y1="66.5" y2="66.5" gradientUnits="userSpaceOnUse"></linearGradient><linearGradient xlink:href="#a" id="i" x1="79.025" x2="53.275" y1="45.641" y2="65.141" gradientUnits="userSpaceOnUse"></linearGradient><linearGradient id="b"><stop offset="0" stop-color="#083f9e"></stop><stop offset="1" stop-color="#053477"></stop></linearGradient><linearGradient xlink:href="#b" id="j" x1="10.699" x2="118.224" y1="66.5" y2="66.5" gradientUnits="userSpaceOnUse"></linearGradient><linearGradient id="c"><stop offset="0" stop-color="#63b1ff"></stop><stop offset="1" stop-color="#4ea3ea"></stop></linearGradient><linearGradient xlink:href="#c" id="k" x1="39.224" x2="39.333" y1="42.385" y2="68.734" gradientUnits="userSpaceOnUse"></linearGradient><linearGradient id="d"><stop offset="0" stop-color="#f8a695"></stop><stop offset="1" stop-color="#fa8d77"></stop></linearGradient><linearGradient xlink:href="#d" id="l" x1="45.356" x2="45.531" y1="46.33" y2="46.33" gradientUnits="userSpaceOnUse"></linearGradient><linearGradient id="e"><stop offset="0" stop-color="#213661"></stop><stop offset="1" stop-color="#081e4b"></stop></linearGradient><linearGradient xlink:href="#e" id="m" x1="39.433" x2="38.742" y1="50.852" y2="83.836" gradientUnits="userSpaceOnUse"></linearGradient><linearGradient id="f"><stop offset="0" stop-color="#ffd46a"></stop><stop offset="1" stop-color="#f4883b"></stop></linearGradient><linearGradient xlink:href="#f" id="n" x1="39.21" x2="39.21" y1="69.563" y2="87.669" gradientUnits="userSpaceOnUse"></linearGradient><linearGradient id="g"><stop offset="0" stop-color="#f8a04a"></stop><stop offset="1" stop-color="#e44d0b"></stop></linearGradient><linearGradient xlink:href="#g" id="o" x1="45.09" x2="45.09" y1="89.104" y2="78.805" gradientUnits="userSpaceOnUse"></linearGradient><linearGradient xlink:href="#g" id="p" x1="33.33" x2="33.33" y1="81.36" y2="74.256" gradientUnits="userSpaceOnUse"></linearGradient><linearGradient xlink:href="#d" id="q" x1="39.212" x2="39.212" y1="53.758" y2="59.97" gradientUnits="userSpaceOnUse"></linearGradient><linearGradient xlink:href="#d" id="r" x1="45.356" x2="47.288" y1="47.212" y2="47.212" gradientUnits="userSpaceOnUse"></linearGradient><linearGradient xlink:href="#d" id="s" x1="33.334" x2="31.549" y1="47.208" y2="47.208" gradientUnits="userSpaceOnUse"></linearGradient><linearGradient xlink:href="#d" id="t" x1="39.212" x2="39.212" y1="47.315" y2="52.596" gradientUnits="userSpaceOnUse"></linearGradient><linearGradient xlink:href="#e" id="u" x1="35.76" x2="37.068" y1="46.976" y2="46.976" gradientUnits="userSpaceOnUse"></linearGradient><linearGradient xlink:href="#e" id="v" x1="41.355" x2="42.664" y1="46.976" y2="46.976" gradientUnits="userSpaceOnUse"></linearGradient><linearGradient xlink:href="#d" id="w" x1="77.233" x2="77.233" y1="44.377" y2="47.502" gradientUnits="userSpaceOnUse"></linearGradient><linearGradient xlink:href="#a" id="x" x1="79.134" x2="79.134" y1="51.44" y2="53.108" gradientUnits="userSpaceOnUse"></linearGradient><linearGradient xlink:href="#a" id="y" x1="79.134" x2="79.134" y1="55.721" y2="57.389" gradientUnits="userSpaceOnUse"></linearGradient><linearGradient xlink:href="#a" id="z" x1="79.134" x2="79.134" y1="60.003" y2="61.671" gradientUnits="userSpaceOnUse"></linearGradient><linearGradient xlink:href="#a" id="A" x1="60.339" x2="60.339" y1="64.285" y2="65.953" gradientUnits="userSpaceOnUse"></linearGradient><linearGradient xlink:href="#a" id="B" x1="73.249" x2="73.249" y1="64.285" y2="65.953" gradientUnits="userSpaceOnUse"></linearGradient><linearGradient xlink:href="#f" id="C" x1="27.052" x2="46.215" y1="83.284" y2="83.284" gradientUnits="userSpaceOnUse"></linearGradient><linearGradient xlink:href="#b" id="D" x1="36.633" x2="46.215" y1="80.607" y2="80.607" gradientUnits="userSpaceOnUse"></linearGradient><linearGradient xlink:href="#c" id="E" x1="30.224" x2="46.111" y1="88.075" y2="88.075" gradientUnits="userSpaceOnUse"></linearGradient><linearGradient xlink:href="#a" id="F" x1="76.166" x2="76.166" y1="76.814" y2="78.282" gradientUnits="userSpaceOnUse"></linearGradient><linearGradient xlink:href="#a" id="G" x1="76.166" x2="76.166" y1="81.781" y2="83.249" gradientUnits="userSpaceOnUse"></linearGradient><linearGradient xlink:href="#a" id="H" x1="58.331" x2="58.331" y1="86.747" y2="88.215" gradientUnits="userSpaceOnUse"></linearGradient><linearGradient xlink:href="#a" id="I" x1="75.743" x2="75.743" y1="86.747" y2="88.215" gradientUnits="userSpaceOnUse"></linearGradient><linearGradient xlink:href="#a" id="J" x1="-2240.452" x2="-2240.452" y1="99.608" y2="100.918" gradientTransform="matrix(-1 0 0 1 -2190.892 0)" gradientUnits="userSpaceOnUse"></linearGradient><linearGradient xlink:href="#a" id="K" x1="-2240.452" x2="-2240.452" y1="104.04" y2="105.35" gradientTransform="matrix(-1 0 0 1 -2190.892 0)" gradientUnits="userSpaceOnUse"></linearGradient><linearGradient xlink:href="#a" id="L" x1="-2256.368" x2="-2256.368" y1="108.473" y2="109.783" gradientTransform="matrix(-1 0 0 1 -2190.892 0)" gradientUnits="userSpaceOnUse"></linearGradient><linearGradient xlink:href="#a" id="M" x1="-2240.83" x2="-2240.83" y1="108.473" y2="109.783" gradientTransform="matrix(-1 0 0 1 -2190.892 0)" gradientUnits="userSpaceOnUse"></linearGradient><linearGradient xlink:href="#c" id="N" x1="83.066" x2="83.066" y1="106.386" y2="110.009" gradientUnits="userSpaceOnUse"></linearGradient><linearGradient xlink:href="#f" id="O" x1="88.263" x2="88.263" y1="103.384" y2="110.009" gradientUnits="userSpaceOnUse"></linearGradient><linearGradient xlink:href="#c" id="P" x1="93.459" x2="93.459" y1="99.14" y2="110.009" gradientUnits="userSpaceOnUse"></linearGradient><linearGradient xlink:href="#f" id="Q" x1="98.655" x2="98.655" y1="94.975" y2="110.009" gradientUnits="userSpaceOnUse"></linearGradient><linearGradient xlink:href="#b" id="R" x1="88.368" x2="88.368" y1="87.756" y2="105.447" gradientUnits="userSpaceOnUse"></linearGradient><linearGradient xlink:href="#b" id="S" x1="3481.032" x2="3481.032" y1="-1856.766" y2="-1853.027" gradientTransform="rotate(45 -557.637 -4966.719)" gradientUnits="userSpaceOnUse"></linearGradient><linearGradient xlink:href="#b" id="T" x1="76.092" x2="103.223" y1="110.405" y2="110.405" gradientUnits="userSpaceOnUse"></linearGradient><path fill="url(#a)" d="M124.278 96.276a44.642 44.642 0 0 1-9.485 11.615c-.501.435-1.012.87-1.533 1.28-.62.504-1.252.984-1.893 1.43-.31.24-.63.458-.951.675-.631.434-1.272.846-1.913 1.246-.03.012-.05.034-.08.046-.32.206-.651.4-.982.582a48.058 48.058 0 0 1-4.197 2.184c-.08.046-.17.08-.26.126a56.287 56.287 0 0 1-4.497 1.806c-.33.115-.661.23-.992.332-.26.092-.52.171-.781.252-.4.125-.811.24-1.212.354-.33.103-.651.195-.982.274-.66.183-1.322.355-1.993.503-.33.08-.66.16-.991.23-.732.159-1.463.308-2.194.445a85.778 85.778 0 0 1-7.221 1.017c-2.695.263-5.41.424-8.113.515-.451.023-.902.034-1.363.046-2.974.09-5.95.114-8.924.137-5.97.045-12.13.011-18.129-.698-7.171-.845-14.132-2.675-20.362-6.516a38.53 38.53 0 0 1-5.49-4.139C7.953 99.34 2.494 80.35 2.605 62.171c.05-9.284 1.442-18.704 4.717-27.05a51.616 51.616 0 0 1 1.993-4.493c2.985-5.934 7.162-11.045 12.04-14.463 1.923-1.35 3.966-2.436 6.08-3.202a21.627 21.627 0 0 1 3.034-.868C44.12 9.27 56.97 19.72 70.512 22.99c7.332 1.772 14.894 1.43 22.366 1.83 6.06.32 12.24 1.189 17.808 3.955a27.784 27.784 0 0 1 3.816 2.275c7.953 5.637 11.97 17.059 14.423 27.611 2.935 12.61 1.533 26.673-4.647 37.615z" opacity="1" data-original="url(#a)"></path><path fill="url(#a)" d="M110.686 28.775C105.678 44.69 96.848 56.88 89.382 70.048c-8.709 15.36-13.18 33.236-15.374 51.14-.451.023-.902.034-1.363.046-8.503-26.147-19.64-51.072-30.749-75.927-4.817-10.781-9.645-21.562-14.463-32.344a21.627 21.627 0 0 1 3.035-.868C44.12 9.27 56.97 19.72 70.512 22.99c7.332 1.772 14.894 1.43 22.366 1.83 6.06.32 12.24 1.189 17.808 3.955z" opacity="1" data-original="url(#a)"></path><path fill="url(#b)" d="m118.198 24.451-20.984 100.85a1.154 1.154 0 0 1-1.372.9l-84.218-16.28a1.154 1.154 0 0 1-.9-1.371L31.71 7.7a1.154 1.154 0 0 1 1.372-.9l84.218 16.278c.632.132 1.031.74.9 1.373z" opacity="1" data-original="url(#b)"></path><path fill="#ffffff" d="M108.569 14.995v103.01c0 .646-.515 1.16-1.16 1.16H21.514c-.646 0-1.16-.514-1.16-1.16V14.995c0-.646.514-1.16 1.16-1.16h85.893c.646 0 1.16.514 1.16 1.16z" opacity="1" data-original="#ffffff" class=""></path><path fill="#63b1ff" d="M108.568 31.58V14.994c0-.646-.514-1.16-1.16-1.16H21.515c-.646 0-1.16.514-1.16 1.16V31.58z" opacity="1" data-original="#63b1ff" class=""></path><g fill="#fff"><path d="M74.169 18.344c0 .138-.028.267-.074.396l-3.517 8.536c-.35.774-.903.94-1.308.94h-.313c-.396 0-.949-.166-1.299-.93l-.009-.01-3.508-8.518a1.094 1.094 0 0 1-.074-.414c0-.405.157-.654.295-.8.138-.148.396-.314.8-.314.231 0 .443.064.636.202.175.139.313.304.396.516l2.92 7.275 2.918-7.266c.093-.22.221-.395.396-.525.194-.138.406-.202.636-.202.414 0 .663.166.801.313s.304.396.304.801zM55.6 20.941c-.258.516-.387 1.114-.387 1.777 0 .663.129 1.262.387 1.777.258.507.617.894 1.114 1.188.497.295 1.123.442 1.85.442.48 0 .903-.055 1.253-.156a6.028 6.028 0 0 0 1.142-.46c.396-.203.903-.12 1.197.183a.974.974 0 0 1 .295.71c0 .414-.193.745-.553.939a7.319 7.319 0 0 1-1.602.69c-.543.166-1.17.249-1.86.249-1.022 0-1.952-.22-2.772-.672a4.914 4.914 0 0 1-1.952-1.953c-.47-.837-.71-1.832-.71-2.937 0-1.105.24-2.09.71-2.928a4.884 4.884 0 0 1 1.952-1.962c.82-.441 1.75-.672 2.772-.672.69 0 1.317.083 1.86.249a7.626 7.626 0 0 1 1.612.69c.35.194.543.525.543.94a.974.974 0 0 1-.286.7c-.294.313-.82.386-1.206.193a6.058 6.058 0 0 0-1.142-.46 4.563 4.563 0 0 0-1.252-.157c-.728 0-1.345.148-1.851.442a2.825 2.825 0 0 0-1.114 1.188z" fill="#ffffff" opacity="1" data-original="#ffffff" class=""></path></g><path fill="url(#c)" d="M52.453 55.56a13.14 13.14 0 0 1-3.694 9.141 12.936 12.936 0 0 1-3.297 2.49 7.014 7.014 0 0 1-.744.363c-1.657.76-3.5 1.18-5.44 1.18-1.996 0-3.88-.444-5.576-1.245a7.08 7.08 0 0 1-.744-.371 13.154 13.154 0 0 1-6.854-11.558c0-3.96 1.746-7.509 4.51-9.917a13.215 13.215 0 0 1 2.457-1.706h.008c.073-.04.13-.073.202-.105a13.012 13.012 0 0 1 5.997-1.447c3.427 0 6.547 1.302 8.891 3.46a13.105 13.105 0 0 1 4.284 9.715z" opacity="1" data-original="url(#c)"></path><path fill="url(#d)" d="M45.531 47.384h-.175v-2.108c.06 0 .116.003.172.01z" opacity="1" data-original="url(#d)" class=""></path><path fill="url(#e)" d="M30.685 57.356c3.058 3.057 14.06 2.869 17.294 0 1.95-1.73.166-11.668.166-11.668 0-5.18-3.122-9.855-8.302-9.855h-1.9c-5.18 0-7.82 3.504-7.258 9.38 0 0-1.83 10.312 0 12.143z" opacity="1" data-original="url(#e)" class=""></path><path fill="url(#f)" d="M48.76 61.007v3.694a12.936 12.936 0 0 1-3.298 2.49 7.014 7.014 0 0 1-.744.363c-1.657.76-3.5 1.18-5.44 1.18-1.996 0-3.88-.444-5.576-1.245a7.08 7.08 0 0 1-.744-.371 13.178 13.178 0 0 1-3.298-2.554v-3.557c0-1.366.542-2.586 1.382-3.346.356-.323.76-.558 1.205-.687.258-.08.533-.12.808-.12h12.31c.307 0 .598.047.873.136.452.146.872.405 1.228.752.792.76 1.293 1.94 1.293 3.265z" opacity="1" data-original="url(#f)"></path><path fill="url(#g)" d="M45.462 64.442v2.749a7.014 7.014 0 0 1-.744.363v-3.112c0-.17.137-.299.299-.299h.145c.17 0 .3.13.3.3z" opacity="1" data-original="url(#g)"></path><path fill="url(#g)" d="M33.702 64.442v3.047a7.08 7.08 0 0 1-.744-.371v-2.676c0-.17.137-.299.299-.299h.146c.17 0 .299.13.299.3z" opacity="1" data-original="url(#g)"></path><path fill="url(#d)" d="M42.388 56.856h-.004a3.173 3.173 0 0 1-6.348 0v-.005l.955-3.093h4.443z" opacity="1" data-original="url(#d)" class=""></path><path fill="url(#d)" d="M47.288 47.208a1.936 1.936 0 0 1-1.932 1.932v-1.756h.175l-.003-2.098a1.92 1.92 0 0 1 1.34.722c.263.327.42.748.42 1.2z" opacity="1" data-original="url(#d)" class=""></path><path fill="url(#d)" d="M31.137 47.208c0 1.062.864 1.93 1.93 1.93v-3.861a1.93 1.93 0 0 0-1.93 1.93z" opacity="1" data-original="url(#d)" class=""></path><path fill="url(#d)" d="M45.533 45.433v3.132a6.32 6.32 0 0 1-12.64 0v-3.132c0-.581.08-1.15.228-1.684 1.197.683 3.492.67 5.903-.153.572-.195 1.116-.42 1.612-.675.407.569 1.048 1.104 1.841 1.494 1.087.535 2.207.675 3.026.45.021.186.03.377.03.568z" opacity="1" data-original="url(#d)" class=""></path><path fill="url(#e)" d="M37.068 46.978c0 .51-.292.923-.654.923-.358 0-.654-.412-.654-.923 0-.51.296-.927.654-.927.362 0 .654.417.654.927z" opacity="1" data-original="url(#e)" class=""></path><path fill="url(#e)" d="M42.664 46.978c0 .51-.292.923-.654.923-.359 0-.655-.412-.655-.923 0-.51.296-.927.655-.927.362 0 .654.417.654.927z" opacity="1" data-original="url(#e)" class=""></path><path fill="#ffffff" d="M37.09 50.474a2.143 2.143 0 0 0 4.244 0z" opacity="1" data-original="#ffffff" class=""></path><path fill="url(#d)" d="M95.716 49.017H58.75c-.655 0-1.185-.531-1.185-1.186v-4.26c0-.655.53-1.186 1.185-1.186h36.966c.655 0 1.186.53 1.186 1.186v4.26c0 .655-.531 1.186-1.186 1.186z" opacity="1" data-original="url(#d)" class=""></path><path fill="url(#a)" d="M57.565 51.78h43.139v1.79H57.565z" opacity="1" data-original="url(#a)"></path><path fill="url(#a)" d="M57.565 56.062h43.139v1.79H57.565z" opacity="1" data-original="url(#a)"></path><path fill="url(#a)" d="M57.565 60.344h43.139v1.79H57.565z" opacity="1" data-original="url(#a)"></path><path fill="url(#a)" d="M57.565 64.626h5.549v1.79h-5.549z" opacity="1" data-original="url(#a)"></path><path fill="url(#a)" d="M65.56 64.626h15.378v1.79H65.56z" opacity="1" data-original="url(#a)"></path><path fill="url(#f)" d="M46.215 83.284c0 .484-.032.96-.104 1.42l-.19.928c-1.047 4.156-4.807 7.234-9.288 7.234a9.545 9.545 0 0 1-6.409-2.459 9.55 9.55 0 0 1-3.172-7.123c0-5.29 4.29-9.581 9.581-9.581a9.551 9.551 0 0 1 6.774 2.807 9.523 9.523 0 0 1 2.808 6.774z" opacity="1" data-original="url(#f)"></path><path fill="url(#b)" d="M46.215 83.284c0 .484-.032.96-.104 1.42l-9.478-1.42 6.774-6.774a9.523 9.523 0 0 1 2.808 6.774z" opacity="1" data-original="url(#b)"></path><path fill="url(#c)" d="m46.111 84.704-.19.928c-1.047 4.156-4.807 7.234-9.288 7.234a9.545 9.545 0 0 1-6.409-2.459l6.409-7.123z" opacity="1" data-original="url(#c)"></path><path fill="url(#a)" d="M50.461 76.508h51.41v1.81h-51.41z" opacity="1" data-original="url(#a)"></path><path fill="url(#a)" d="M50.461 81.474h51.41v1.81h-51.41z" opacity="1" data-original="url(#a)"></path><path fill="url(#a)" d="M50.461 86.441h15.74v1.81h-15.74z" opacity="1" data-original="url(#a)"></path><path fill="url(#a)" d="M68.701 86.441h14.083v1.81H68.701z" opacity="1" data-original="url(#a)"></path><path fill="url(#a)" d="M26.62 99.334H72.5v1.615H26.62z" opacity="1" data-original="url(#a)"></path><path fill="url(#a)" d="M26.62 103.767H72.5v1.615H26.62z" opacity="1" data-original="url(#a)"></path><path fill="url(#a)" d="M58.453 108.199H72.5v1.615H58.453z" opacity="1" data-original="url(#a)"></path><path fill="url(#a)" d="M43.653 108.199h12.568v1.615H43.653z" opacity="1" data-original="url(#a)"></path><path fill="url(#c)" d="M81.414 106.386h3.306v3.623h-3.306z" opacity="1" data-original="url(#c)"></path><path fill="url(#f)" d="M86.61 103.384h3.306v6.624H86.61z" opacity="1" data-original="url(#f)"></path><path fill="url(#c)" d="M91.806 99.14h3.306v10.869h-3.306z" opacity="1" data-original="url(#c)"></path><path fill="url(#f)" d="M97.002 94.975h3.306v15.033h-3.306z" opacity="1" data-original="url(#f)"></path><path fill="url(#b)" d="M77.817 105.447a.635.635 0 0 1-.475-1.056l3.094-3.49a.635.635 0 0 1 .895-.055l1.903 1.677 15.247-14.59a.635.635 0 1 1 .877.916L83.69 103.843a.635.635 0 0 1-.858.018l-1.866-1.645-2.674 3.017a.634.634 0 0 1-.475.214z" opacity="1" data-original="url(#b)"></path><path fill="url(#b)" d="M98.62 91.638a.635.635 0 0 1-.628-.732l.335-2.166-2.166.336a.635.635 0 0 1-.195-1.255l3.023-.468a.636.636 0 0 1 .725.724l-.469 3.023a.635.635 0 0 1-.626.538z" opacity="1" data-original="url(#b)"></path><path fill="url(#b)" d="M102.589 111.04H76.726a.635.635 0 0 1 0-1.27h25.863a.635.635 0 0 1 0 1.27z" opacity="1" data-original="url(#b)"></path></g></svg>